<?xml version="1.0" encoding="utf-8"?>
<!-- Generator: Adobe Illustrator 19.0.0, SVG Export Plug-In . SVG Version: 6.00 Build 0)  -->
<svg version="1.1" id="图层_1" xmlns="http://www.w3.org/2000/svg" xmlns:xlink="http://www.w3.org/1999/xlink" x="0px" y="0px"
	 viewBox="0 0 85 85" style="enable-background:new 0 0 85 85;" xml:space="preserve">
<style type="text/css">
	.st0{fill:none;stroke:#00A0E9;stroke-width:2;stroke-miterlimit:10;}
	.st1{fill:#FFFFFF;stroke:#00A0E9;stroke-width:2;stroke-miterlimit:10;}
	.st2{stroke:#00A0E9;stroke-width:2;stroke-miterlimit:10;}
</style>
<line id="XMLID_5_" class="st0" x1="19" y1="31.9" x2="66.9" y2="32"/>
<line id="XMLID_6_" class="st0" x1="19" y1="52.2" x2="66.9" y2="52.3"/>
<line id="XMLID_8_" class="st0" x1="19" y1="45.3" x2="66.9" y2="45.4"/>
<line id="XMLID_9_" class="st0" x1="19" y1="38.7" x2="66.9" y2="38.8"/>
<line id="XMLID_3_" class="st0" x1="32.2" y1="17.6" x2="32.3" y2="65.6"/>
<line id="XMLID_1_" class="st0" x1="39.6" y1="17.6" x2="39.7" y2="65.6"/>
<line id="XMLID_4_" class="st0" x1="47" y1="17.6" x2="47.1" y2="65.6"/>
<line id="XMLID_7_" class="st0" x1="54" y1="17.6" x2="54.1" y2="65.6"/>
<rect id="XMLID_2_" x="25.8" y="25.1" class="st1" width="34.2" height="34.2"/>
<g id="XMLID_10_">
	<path id="XMLID_12_" class="st2" d="M46.1,50.4l-1.9-5h-7.2l-1.8,5h-1.7l6.4-16.8h1.6l6.4,16.8H46.1z M41,36.5
		c-0.1-0.1-0.1-0.3-0.2-0.5s-0.1-0.4-0.1-0.7h0c0,0.3-0.1,0.5-0.2,0.7s-0.1,0.4-0.2,0.5L37.6,44h6.2L41,36.5z"/>
	<path id="XMLID_15_" class="st2" d="M52.1,50.4h-1.6V33.5h1.6V50.4z"/>
</g>
<g id="XMLID_11_">
</g>
<g id="XMLID_17_">
</g>
<g id="XMLID_18_">
</g>
<g id="XMLID_19_">
</g>
<g id="XMLID_20_">
</g>
<g id="XMLID_21_">
</g>
</svg>
