<?xml version="1.0" encoding="utf-8"?>
<!-- Generator: Adobe Illustrator 19.0.0, SVG Export Plug-In . SVG Version: 6.00 Build 0)  -->
<svg version="1.1" id="图层_1" xmlns="http://www.w3.org/2000/svg" xmlns:xlink="http://www.w3.org/1999/xlink" width="60" height="60"
	 viewBox="0 0 100 100" style="enable-background:new 0 0 106 106;" xml:space="preserve">
<style type="text/css">
	.st0{fill:#3E3A39;}
	.st1{fill:#FFFFFF;}
</style>
<rect id="XMLID_168_" x="17.6" y="17.5" class="st0" width="51" height="51"/>
<rect id="XMLID_169_" x="24.5" y="7.6" class="st0" width="6.1" height="70.9"/>
<rect id="XMLID_170_" x="56.3" y="7.6" class="st0" width="6.1" height="70.9"/>
<rect id="XMLID_171_" x="45.4" y="7.6" class="st0" width="6.1" height="70.9"/>
<rect id="XMLID_172_" x="35" y="7.6" class="st0" width="6.1" height="70.9"/>
<rect id="XMLID_173_" x="7.7" y="23.7" class="st0" width="70.9" height="6.1"/>
<rect id="XMLID_174_" x="7.7" y="34.2" class="st0" width="70.9" height="6.1"/>
<rect id="XMLID_175_" x="7.7" y="45.5" class="st0" width="70.9" height="6.1"/>
<rect id="XMLID_176_" x="7.7" y="56.2" class="st0" width="70.9" height="6.1"/>
<path id="XMLID_230_" class="st1" d="M29.6,62.3l-0.8,0c-1.1,0-2-0.9-2-2V33.2c0-1.1,0.9-2,2-2h0.8c1.1,0,2,0.9,2,2v27.1
	C31.7,61.4,30.7,62.3,29.6,62.3z"/>
<circle id="XMLID_190_" class="st1" cx="36.3" cy="34.2" r="9.5"/>
<circle id="XMLID_231_" class="st0" cx="36.3" cy="34" r="4.7"/>
<rect id="XMLID_232_" x="41.1" y="33.7" class="st1" width="4.8" height="18.6"/>
<circle id="XMLID_259_" class="st1" cx="50.5" cy="53.2" r="9.5"/>
<circle id="XMLID_260_" class="st0" cx="50.5" cy="52.3" r="4.7"/>
<rect id="XMLID_261_" x="45.8" y="31.3" class="st0" width="9.4" height="21"/>
<path id="XMLID_262_" class="st1" d="M58.2,54.6H57c-1,0-1.8-0.8-1.8-1.8V36.5c0-1,0.8-1.8,1.8-1.8h1.2c1,0,1.8,0.8,1.8,1.8v16.3
	C60,53.7,59.2,54.6,58.2,54.6z"/>
<circle id="XMLID_263_" class="st1" cx="57.6" cy="27.8" r="4.1"/>
<rect id="XMLID_264_" x="31.7" y="33.7" class="st0" width="9.4" height="15.6"/>
<ellipse id="XMLID_265_" class="st1" cx="36.3" cy="38.8" rx="9.1" ry="2.7"/>
<g id="XMLID_307_">
</g>
<g id="XMLID_308_">
</g>
<g id="XMLID_309_">
</g>
<g id="XMLID_310_">
</g>
<g id="XMLID_311_">
</g>
<g id="XMLID_312_">
</g>
</svg>
