<?xml version="1.0" encoding="utf-8"?>
<!-- Generator: Adobe Illustrator 19.0.0, SVG Export Plug-In . SVG Version: 6.00 Build 0)  -->
<svg version="1.1" id="图层_1" xmlns="http://www.w3.org/2000/svg" xmlns:xlink="http://www.w3.org/1999/xlink" width="60" height="60"
	 viewBox="0 0 160 160" style="enable-background:new 0 0 106.5 103.8;" xml:space="preserve">
<style type="text/css">
	.st0{clip-path:url(#SVGID_2_);fill:none;stroke:#00B0F0;stroke-width:6;stroke-miterlimit:8;}
	.st1{clip-path:url(#SVGID_2_);}
	.st2{clip-path:url(#SVGID_4_);fill:none;stroke:#00B0F0;stroke-width:6;stroke-miterlimit:8;}
	.st3{clip-path:url(#SVGID_4_);}
	.st4{clip-path:url(#SVGID_6_);fill:none;stroke:#00B0F0;stroke-width:6;stroke-miterlimit:8;}
	.st5{clip-path:url(#SVGID_6_);}
	.st6{clip-path:url(#SVGID_8_);fill:none;stroke:#00B0F0;stroke-width:6;stroke-miterlimit:8;}
	.st7{clip-path:url(#SVGID_8_);}
	.st8{clip-path:url(#SVGID_10_);fill:none;stroke:#00B0F0;stroke-width:6;stroke-miterlimit:8;}
	.st9{clip-path:url(#SVGID_10_);}
	.st10{clip-path:url(#SVGID_12_);fill:none;stroke:#00B0F0;stroke-width:6;stroke-miterlimit:8;}
	.st11{clip-path:url(#SVGID_12_);}
	.st12{clip-path:url(#SVGID_14_);fill:none;stroke:#00B0F0;stroke-width:6;stroke-miterlimit:8;}
	.st13{clip-path:url(#SVGID_14_);}
	.st14{clip-path:url(#SVGID_16_);fill:none;stroke:#00B0F0;stroke-width:6;stroke-miterlimit:8;}
	.st15{clip-path:url(#SVGID_16_);}
	.st16{clip-path:url(#SVGID_18_);fill-rule:evenodd;clip-rule:evenodd;fill:#00B0F0;}
	.st17{clip-path:url(#SVGID_18_);fill:none;stroke:#00B0F0;stroke-width:6;stroke-miterlimit:8;}
	.st18{clip-path:url(#SVGID_18_);}
	.st19{clip-path:url(#SVGID_20_);}
	.st20{clip-path:url(#SVGID_22_);}
	.st21{fill:#FFFFFF;}
</style>
<g>
	<g>
		<defs>
			<polygon id="SVGID_1_" points="-6.3,114.4 112.6,114.4 112.6,0 -6.3,0 -6.3,114.4 			"/>
		</defs>
		<clipPath id="SVGID_2_">
			<use xlink:href="#SVGID_1_"  style="overflow:visible;"/>
		</clipPath>
		<line class="st0" x1="30.8" y1="3.1" x2="30.8" y2="98.7"/>
		<g class="st1">
			<defs>
				<polygon id="SVGID_3_" points="-6.3,114.4 112.6,114.4 112.6,0 -6.3,0 -6.3,114.4 				"/>
			</defs>
			<clipPath id="SVGID_4_">
				<use xlink:href="#SVGID_3_"  style="overflow:visible;"/>
			</clipPath>
			<line class="st2" x1="60" y1="3.1" x2="60" y2="98.7"/>
			<g class="st3">
				<defs>
					<polygon id="SVGID_5_" points="-6.3,114.4 112.6,114.4 112.6,0 -6.3,0 -6.3,114.4 					"/>
				</defs>
				<clipPath id="SVGID_6_">
					<use xlink:href="#SVGID_5_"  style="overflow:visible;"/>
				</clipPath>
				<line class="st4" x1="74.8" y1="3.1" x2="74.8" y2="98.7"/>
				<g class="st5">
					<defs>
						<polygon id="SVGID_7_" points="-6.3,114.4 112.6,114.4 112.6,0 -6.3,0 -6.3,114.4 						"/>
					</defs>
					<clipPath id="SVGID_8_">
						<use xlink:href="#SVGID_7_"  style="overflow:visible;"/>
					</clipPath>
					<line class="st6" x1="45.2" y1="3.1" x2="45.2" y2="98.7"/>
					<g class="st7">
						<defs>
							<polygon id="SVGID_9_" points="-6.3,114.4 112.6,114.4 112.6,0 -6.3,0 -6.3,114.4 							"/>
						</defs>
						<clipPath id="SVGID_10_">
							<use xlink:href="#SVGID_9_"  style="overflow:visible;"/>
						</clipPath>
						<line class="st8" x1="100.2" y1="30.5" x2="4.2" y2="30.5"/>
						<g class="st9">
							<defs>
								<polygon id="SVGID_11_" points="-6.3,114.4 112.6,114.4 112.6,0 -6.3,0 -6.3,114.4 								"/>
							</defs>
							<clipPath id="SVGID_12_">
								<use xlink:href="#SVGID_11_"  style="overflow:visible;"/>
							</clipPath>
							<line class="st10" x1="100.2" y1="44.3" x2="4.2" y2="44.3"/>
							<g class="st11">
								<defs>
									<polygon id="SVGID_13_" points="-6.3,114.4 112.6,114.4 112.6,0 -6.3,0 -6.3,114.4 									"/>
								</defs>
								<clipPath id="SVGID_14_">
									<use xlink:href="#SVGID_13_"  style="overflow:visible;"/>
								</clipPath>
								<line class="st12" x1="100.2" y1="58" x2="4.2" y2="58"/>
								<g class="st13">
									<defs>
										<polygon id="SVGID_15_" points="-6.3,114.4 112.6,114.4 112.6,0 -6.3,0 -6.3,114.4 										"/>
									</defs>
									<clipPath id="SVGID_16_">
										<use xlink:href="#SVGID_15_"  style="overflow:visible;"/>
									</clipPath>
									<line class="st14" x1="100.1" y1="72.1" x2="4" y2="72.1"/>
									<g class="st15">
										<defs>
											<polygon id="SVGID_17_" points="-6.3,114.4 112.6,114.4 112.6,0 -6.3,0 -6.3,114.4 											"/>
										</defs>
										<clipPath id="SVGID_18_">
											<use xlink:href="#SVGID_17_"  style="overflow:visible;"/>
										</clipPath>
										<polygon class="st16" points="19.8,18.4 85.5,18.4 85.5,83.6 19.8,83.6 19.8,18.4 										"/>
										<polygon class="st17" points="19.8,18.4 85.5,18.4 85.5,83.6 19.8,83.6 19.8,18.4 										"/>
										<g class="st18">
											<defs>
												<polygon id="SVGID_19_" points="-6.3,114.4 112.6,114.4 112.6,0 -6.3,0 -6.3,114.4 												"/>
											</defs>
											<clipPath id="SVGID_20_">
												<use xlink:href="#SVGID_19_"  style="overflow:visible;"/>
											</clipPath>
											<g class="st19">
												<defs>
													<rect id="SVGID_21_" x="-6.3" width="118.8" height="114.4"/>
												</defs>
												<clipPath id="SVGID_22_">
													<use xlink:href="#SVGID_21_"  style="overflow:visible;"/>
												</clipPath>
												<g class="st20">
													<path class="st21" d="M49,32.1l14,37.2h-6.5l-3.7-10.2H37.7L34,69.2h-6.5l14-37.2H49z M45.3,36.9c-0.3,1-0.6,2-0.9,2.8
														c-0.3,0.9-0.6,1.8-1,2.9l-4.2,11.5h12.2l-4.2-11.5C46.6,41.1,45.9,39.2,45.3,36.9z"/>
													<path class="st21" d="M74.7,69.2h-6.5V32.1h6.5V69.2z"/>
												</g>
											</g>
										</g>
									</g>
								</g>
							</g>
						</g>
					</g>
				</g>
			</g>
		</g>
	</g>
</g>
</svg>
